<?xml version="1.0" encoding="utf-8"?>

<!-- Uploaded to: SVG Repo, www.svgrepo.com, Generator: SVG Repo Mixer Tools -->
<svg fill="#000000" height="800px" width="800px" version="1.1" id="Icons" xmlns="http://www.w3.org/2000/svg" xmlns:xlink="http://www.w3.org/1999/xlink" 
	 viewBox="0 0 32 32" xml:space="preserve">
<path d="M25.5,21H23V11h2.5C28,11,30,9,30,6.5S28,2,25.5,2S21,4,21,6.5V9H11V6.5C11,4,9,2,6.5,2S2,4,2,6.5S4,11,6.5,11H9v10H6.5
	C4,21,2,23,2,25.5S4,30,6.5,30s4.5-2,4.5-4.5V23h10v2.5c0,2.5,2,4.5,4.5,4.5s4.5-2,4.5-4.5S28,21,25.5,21z M23,6.5
	C23,5.1,24.1,4,25.5,4S28,5.1,28,6.5S26.9,9,25.5,9H23V6.5z M9,25.5C9,26.9,7.9,28,6.5,28S4,26.9,4,25.5S5.1,23,6.5,23H9V25.5z M9,9
	H6.5C5.1,9,4,7.9,4,6.5S5.1,4,6.5,4S9,5.1,9,6.5V9z M21,21H11V11h10V21z M25.5,28c-1.4,0-2.5-1.1-2.5-2.5V23h2.5
	c1.4,0,2.5,1.1,2.5,2.5S26.9,28,25.5,28z"/>
</svg>